<?xml version="1.0" encoding="UTF-8"?>
<svg width="42px" height="29px" viewBox="0 0 42 29" version="1.1" xmlns="http://www.w3.org/2000/svg" xmlns:xlink="http://www.w3.org/1999/xlink">
    <!-- Generator: Sketch 41.2 (35397) - http://www.bohemiancoding.com/sketch -->
    <title>Page-1</title>
    <desc>Created with Sketch.</desc>
    <defs>
        <linearGradient x1="50%" y1="0%" x2="50%" y2="100%" id="linearGradient-1">
            <stop stop-color="#BD74E6" offset="0%"></stop>
            <stop stop-color="#4B40C8" offset="100%"></stop>
        </linearGradient>
    </defs>
    <g id="Page-1" stroke="none" stroke-width="1" fill="none" fill-rule="evenodd">
        <g id="Shape">
            <path d="M10,1.55960895 C10,0.039371661 10.975095,-0.453579261 12.1755646,0.456774207 L20.8799176,7.05755597 L29.5842706,0.456774207 C30.7858018,-0.45438427 31.7598352,0.0404964131 31.7598352,1.55960895 L31.7598352,12.555503 C31.7598352,14.0757402 30.7847402,14.5686912 29.5842706,13.6583377 L20.8799176,7.05755597 L12.1755646,13.6583377 C10.9740335,14.5694962 10,14.0746155 10,12.555503 L10,1.55960895 Z" fill="url(#linearGradient-1)"></path>
            <path d="M1.0991888,27.7975375 L3.43313266,27.7975375 L3.43313266,28.6903611 L0,28.6903611 L0,23.296373 L1.0991888,23.296373 L1.0991888,27.7975375 Z M6.29102337,28.6903611 C6.24217012,28.5940394 6.20675221,28.4742566 6.18476838,28.3310089 C5.92828972,28.619974 5.59487256,28.7644544 5.1845067,28.7644544 C4.79612466,28.7644544 4.47430983,28.6508459 4.21905261,28.4236254 C3.96379519,28.196405 3.83616857,27.909914 3.83616857,27.5641438 C3.83616857,27.1393404 3.99188544,26.8133334 4.30332377,26.586113 C4.61476211,26.3588926 5.06481429,26.2440492 5.65349387,26.2415794 L6.14080094,26.2415794 L6.14080094,26.0118904 C6.14080094,25.8266563 6.09378049,25.6784713 5.99973835,25.5673309 C5.90569621,25.4561905 5.75730721,25.4006211 5.55456697,25.4006211 C5.37625304,25.4006211 5.23641336,25.4438417 5.13504314,25.5302843 C5.03367313,25.6167268 4.98298874,25.7352748 4.98298874,25.8859319 L3.92410366,25.8859319 C3.92410366,25.6537719 3.99493948,25.4389036 4.13661342,25.2413206 C4.27828736,25.0437376 4.47858199,24.8887608 4.73750335,24.7763855 C4.9964245,24.6640102 5.28709608,24.6078234 5.60952622,24.6078234 C6.09805703,24.6078234 6.48582251,24.7319283 6.77283432,24.9801419 C7.05984613,25.2283556 7.20334996,25.5772078 7.20334996,26.026709 L7.20334996,27.7641956 C7.20579265,28.1445428 7.25830879,28.4322687 7.36090026,28.6273819 L7.36090026,28.6903611 L6.29102337,28.6903611 Z M5.41533635,27.945724 C5.57166603,27.945724 5.71578058,27.9105301 5.84768395,27.8401411 C5.97958712,27.7697522 6.07729174,27.6752843 6.14080094,27.5567345 L6.14080094,26.8676673 L5.7450929,26.8676673 C5.21503714,26.8676673 4.93291467,27.0528986 4.89871758,27.4233666 L4.89505365,27.4863459 C4.89505365,27.6197144 4.94146337,27.7296183 5.03428427,27.8160608 C5.12710496,27.9025034 5.25412107,27.945724 5.41533635,27.945724 Z M10.2444387,25.6858801 C10.1003221,25.6661218 9.97330598,25.6562428 9.86338644,25.6562428 C9.46279135,25.6562428 9.20021001,25.7933139 9.07563472,26.0674603 L9.07563472,28.6903611 L8.01674964,28.6903611 L8.01674964,24.6819166 L9.01701133,24.6819166 L9.04632302,25.1598181 C9.25883383,24.7918198 9.55316914,24.6078234 9.92933792,24.6078234 C10.0465853,24.6078234 10.156503,24.6238768 10.2590945,24.655984 L10.2444387,25.6858801 Z M12.941115,28.6903611 C12.8922617,28.5940394 12.8568438,28.4742566 12.83486,28.3310089 C12.5783813,28.619974 12.2449642,28.7644544 11.8345983,28.7644544 C11.4462163,28.7644544 11.1244014,28.6508459 10.8691442,28.4236254 C10.6138868,28.196405 10.4862602,27.909914 10.4862602,27.5641438 C10.4862602,27.1393404 10.6419771,26.8133334 10.9534154,26.586113 C11.2648537,26.3588926 11.7149059,26.2440492 12.3035855,26.2415794 L12.7908924,26.2415794 L12.7908924,26.0118904 C12.7908924,25.8266563 12.7438721,25.6784713 12.64983,25.5673309 C12.5557876,25.4561905 12.4073986,25.4006211 12.2046584,25.4006211 C12.0263447,25.4006211 11.886505,25.4438417 11.7851348,25.5302843 C11.6837647,25.6167268 11.6330804,25.7352748 11.6330804,25.8859319 L10.5741953,25.8859319 C10.5741953,25.6537719 10.6450311,25.4389036 10.786705,25.2413206 C10.928379,25.0437376 11.1286736,24.8887608 11.3875948,24.7763855 C11.6465161,24.6640102 11.9371877,24.6078234 12.2596178,24.6078234 C12.7481487,24.6078234 13.1359141,24.7319283 13.4229259,24.9801419 C13.7099378,25.2283556 13.8534416,25.5772078 13.8534416,26.026709 L13.8534416,27.7641956 C13.8558841,28.1445428 13.9084004,28.4322687 14.0109919,28.6273819 L14.0109919,28.6903611 L12.941115,28.6903611 Z M12.065428,27.945724 C12.2217577,27.945724 12.3658722,27.9105301 12.4977754,27.8401411 C12.6296787,27.7697522 12.7273834,27.6752843 12.7908924,27.5567345 L12.7908924,26.8676673 L12.3951845,26.8676673 C11.8651285,26.8676673 11.5830063,27.0528986 11.5488092,27.4233666 L11.5451453,27.4863459 C11.5451453,27.6197144 11.591555,27.7296183 11.6843759,27.8160608 C11.7771966,27.9025034 11.9042127,27.945724 12.065428,27.945724 Z M16.0957864,27.3826154 L16.8322428,24.6819166 L17.9387595,24.6819166 L16.6014132,28.6903611 L15.5901597,28.6903611 L14.2528133,24.6819166 L15.35933,24.6819166 L16.0957864,27.3826154 Z M20.1811043,28.7644544 C19.5997528,28.7644544 19.1264958,28.5841626 18.761319,28.2235737 C18.3961422,27.8629848 18.2135566,27.3826184 18.2135566,26.7824601 L18.2135566,26.6787295 C18.2135566,26.2761542 18.290499,25.9161882 18.4443862,25.5988205 C18.5982734,25.2814529 18.816277,25.0369476 19.0984036,24.8652974 C19.3805301,24.6936472 19.7023449,24.6078234 20.0638575,24.6078234 C20.6061267,24.6078234 21.0329741,24.7807059 21.3444124,25.1264761 C21.6558507,25.4722463 21.8115676,25.9624917 21.8115676,26.597227 L21.8115676,27.0343771 L19.2870976,27.0343771 C19.3212947,27.2961746 19.4244954,27.5061033 19.5967025,27.6641697 C19.7689096,27.8222361 19.9869132,27.9012681 20.2507197,27.9012681 C20.6586429,27.9012681 20.9774043,27.7518482 21.207014,27.4530039 L21.7272965,28.0420452 C21.5685241,28.2692657 21.3535737,28.4464702 21.0824391,28.5736643 C20.8113045,28.7008583 20.5108627,28.7644544 20.1811043,28.7644544 Z M20.0601936,25.4747143 C19.8501255,25.4747143 19.6797528,25.5463371 19.5490709,25.6895848 C19.418389,25.8328324 19.3347294,26.0378217 19.2980894,26.3045587 L20.7710024,26.3045587 L20.7710024,26.2193514 C20.766117,25.9822519 20.7026091,25.7988729 20.5804763,25.6692091 C20.4583437,25.5395453 20.2849178,25.4747143 20.0601936,25.4747143 Z M23.529966,28.6903611 L22.4674168,28.6903611 L22.4674168,23 L23.529966,23 L23.529966,28.6903611 Z M28.102591,28.0235219 L28.1319027,28.1383665 L28.1648783,28.0235219 L29.842973,23.296373 L30.3376079,23.296373 L28.3517403,28.6903611 L27.9193927,28.6903611 L25.9335253,23.296373 L26.4244963,23.296373 L28.102591,28.0235219 Z M33.3530489,28.6903611 C33.3090811,28.564402 33.280991,28.3779359 33.2687778,28.1309571 C33.1148906,28.3334797 32.9188706,28.4896914 32.6807118,28.5995969 C32.4425531,28.7095024 32.1903528,28.7644544 31.9241036,28.7644544 C31.5430496,28.7644544 31.2346693,28.6570202 30.9989532,28.4421488 C30.7632371,28.2272773 30.6453809,27.9556048 30.6453809,27.6271231 C30.6453809,27.2368967 30.8059829,26.928178 31.1271918,26.7009575 C31.4484007,26.4737371 31.8960104,26.3601286 32.4700341,26.3601286 L33.2651138,26.3601286 L33.2651138,25.9044552 C33.2651138,25.6179598 33.1777903,25.3925952 33.0031405,25.2283543 C32.8284907,25.0641135 32.573848,24.9819943 32.2392044,24.9819943 C31.9338727,24.9819943 31.6810617,25.0610263 31.4807642,25.2190927 C31.2804666,25.377159 31.1803193,25.5673298 31.1803193,25.7896106 L30.7406438,25.785906 C30.7406438,25.4673034 30.8872009,25.1913089 31.1803193,24.957914 C31.4734378,24.7245191 31.8337237,24.6078234 32.2611882,24.6078234 C32.7033085,24.6078234 33.0519921,24.7195796 33.3072493,24.9430953 C33.5625067,25.166611 33.6937973,25.478417 33.7011254,25.8785225 L33.7011254,27.7753096 C33.7011254,28.1630662 33.7414285,28.4532618 33.8220361,28.6459052 L33.8220361,28.6903611 L33.3530489,28.6903611 Z M31.9753991,28.3717602 C32.2685176,28.3717602 32.5304882,28.3001374 32.7613191,28.1568898 C32.9921498,28.0136421 33.1600797,27.8222365 33.2651138,27.5826671 L33.2651138,26.7009575 L32.4810259,26.7009575 C32.0437908,26.7058971 31.7018245,26.7867814 31.4551164,26.9436129 C31.2084083,27.1004444 31.0850561,27.3159301 31.0850561,27.5900765 C31.0850561,27.8148271 31.1674945,28.0012932 31.3323737,28.1494805 C31.4972529,28.2976677 31.7115926,28.3717602 31.9753991,28.3717602 Z M35.3609002,28.6903611 L34.9212247,28.6903611 L34.9212247,23 L35.3609002,23 L35.3609002,28.6903611 Z M38.0868881,28.7644544 C37.7498021,28.7644544 37.4450855,28.6804829 37.1727296,28.5125373 C36.9003737,28.3445918 36.6884768,28.110583 36.5370321,27.8105039 C36.3855876,27.5104247 36.3098666,27.1739213 36.3098666,26.8009834 L36.3098666,26.6416829 C36.3098666,26.2563961 36.3837556,25.9093962 36.5315362,25.6006729 C36.6793167,25.2919495 36.8851073,25.0492965 37.1489138,24.8727067 C37.4127205,24.696117 37.6985067,24.6078234 38.0062811,24.6078234 C38.4874839,24.6078234 38.8691427,24.7739141 39.1512693,25.1061005 C39.4333958,25.4382868 39.5744569,25.8921034 39.5744569,26.4675638 L39.5744569,26.7157762 L36.7458781,26.7157762 L36.7458781,26.8009834 C36.7458781,27.2554242 36.8747262,27.6339134 37.1324261,27.9364624 C37.390126,28.2390113 37.7143835,28.3902835 38.105208,28.3902835 C38.3397029,28.3902835 38.5467146,28.3470629 38.7262496,28.2606203 C38.9057848,28.1741778 39.0688293,28.0358718 39.2153886,27.8456981 L39.4901857,28.0568639 C39.1677556,28.5285932 38.6999942,28.7644544 38.0868881,28.7644544 Z M38.0062811,24.9856989 C37.6765227,24.9856989 37.3986751,25.1079516 37.1727296,25.3524605 C36.9467841,25.5969694 36.8093869,25.9254462 36.7605338,26.3379006 L39.1384454,26.3379006 L39.1384454,26.28974 C39.1262321,25.9044532 39.0175357,25.590795 38.8123527,25.3487558 C38.6071698,25.1067167 38.338482,24.9856989 38.0062811,24.9856989 Z M41.109657,23.6557252 L41.109657,24.6819166 L41.9303846,24.6819166 L41.9303846,25.0449735 L41.109657,25.0449735 L41.109657,27.716035 C41.109657,27.9383158 41.1493496,28.1037891 41.228736,28.2124597 C41.3081222,28.3211303 41.4406342,28.3754648 41.6262758,28.3754648 C41.6995554,28.3754648 41.8180223,28.3631161 41.9816801,28.3384182 L42,28.7014751 C41.8851953,28.7434615 41.7288677,28.7644544 41.5310128,28.7644544 C41.2305663,28.7644544 41.0119522,28.6761608 40.8751634,28.499571 C40.7383749,28.3229812 40.6699818,28.06304 40.6699818,27.7197396 L40.6699818,25.0449735 L39.9408532,25.0449735 L39.9408532,24.6819166 L40.6699818,24.6819166 L40.6699818,23.6557252 L41.109657,23.6557252 Z" fill="#2E2E2E"></path>
        </g>
    </g>
</svg>